<mxfile host="app.diagrams.net" modified="2021-12-10T09:23:57.898Z" agent="5.0 (Windows NT 10.0; WOW64) AppleWebKit/537.36 (KHTML, like Gecko) Chrome/94.0.4606.102 Safari/537.36" etag="-SHaCcbdbfHiTOPqA7TG" version="15.9.4" type="github">
  <diagram id="R2lEEEUBdFMjLlhIrx00" name="Page-1">
    <mxGraphModel dx="994" dy="544" grid="1" gridSize="10" guides="1" tooltips="1" connect="1" arrows="1" fold="1" page="1" pageScale="1" pageWidth="850" pageHeight="1100" math="0" shadow="0" extFonts="Permanent Marker^https://fonts.googleapis.com/css?family=Permanent+Marker">
      <root>
        <mxCell id="0" />
        <mxCell id="1" parent="0" />
        <mxCell id="BcAI-pfgliB9wdG6FNaX-10" value="" style="rounded=0;orthogonalLoop=1;jettySize=auto;html=1;" edge="1" parent="1" source="BcAI-pfgliB9wdG6FNaX-1" target="BcAI-pfgliB9wdG6FNaX-9">
          <mxGeometry relative="1" as="geometry" />
        </mxCell>
        <mxCell id="BcAI-pfgliB9wdG6FNaX-12" value="" style="edgeStyle=none;rounded=0;orthogonalLoop=1;jettySize=auto;html=1;" edge="1" parent="1" source="BcAI-pfgliB9wdG6FNaX-1" target="BcAI-pfgliB9wdG6FNaX-11">
          <mxGeometry relative="1" as="geometry" />
        </mxCell>
        <UserObject label="Admin&lt;br&gt;" tooltip="as" id="BcAI-pfgliB9wdG6FNaX-1">
          <mxCell style="shape=umlActor;verticalLabelPosition=bottom;verticalAlign=top;html=1;outlineConnect=0;" vertex="1" parent="1">
            <mxGeometry x="50" y="40" width="30" height="60" as="geometry" />
          </mxCell>
        </UserObject>
        <mxCell id="BcAI-pfgliB9wdG6FNaX-29" value="&amp;lt;&amp;lt;include&amp;gt;&amp;gt;" style="edgeStyle=none;rounded=0;orthogonalLoop=1;jettySize=auto;html=1;dashed=1;endArrow=open;endFill=0;startArrow=none;startFill=0;endSize=12;" edge="1" parent="1" source="BcAI-pfgliB9wdG6FNaX-9" target="BcAI-pfgliB9wdG6FNaX-28">
          <mxGeometry relative="1" as="geometry" />
        </mxCell>
        <mxCell id="BcAI-pfgliB9wdG6FNaX-9" value="Login" style="ellipse;whiteSpace=wrap;html=1;verticalAlign=middle;align=center;" vertex="1" parent="1">
          <mxGeometry x="240" y="140" width="120" height="50" as="geometry" />
        </mxCell>
        <mxCell id="BcAI-pfgliB9wdG6FNaX-11" value="Logout" style="ellipse;whiteSpace=wrap;html=1;verticalAlign=middle;" vertex="1" parent="1">
          <mxGeometry x="240" y="10" width="120" height="60" as="geometry" />
        </mxCell>
        <mxCell id="BcAI-pfgliB9wdG6FNaX-18" style="edgeStyle=none;rounded=0;orthogonalLoop=1;jettySize=auto;html=1;" edge="1" parent="1" source="BcAI-pfgliB9wdG6FNaX-15" target="BcAI-pfgliB9wdG6FNaX-9">
          <mxGeometry relative="1" as="geometry" />
        </mxCell>
        <mxCell id="BcAI-pfgliB9wdG6FNaX-19" style="edgeStyle=none;rounded=0;orthogonalLoop=1;jettySize=auto;html=1;entryX=0;entryY=0.5;entryDx=0;entryDy=0;" edge="1" parent="1" source="BcAI-pfgliB9wdG6FNaX-15" target="BcAI-pfgliB9wdG6FNaX-11">
          <mxGeometry relative="1" as="geometry" />
        </mxCell>
        <mxCell id="BcAI-pfgliB9wdG6FNaX-15" value="Lễ Tân" style="shape=umlActor;verticalLabelPosition=bottom;verticalAlign=top;html=1;outlineConnect=0;" vertex="1" parent="1">
          <mxGeometry x="50" y="200" width="30" height="60" as="geometry" />
        </mxCell>
        <mxCell id="BcAI-pfgliB9wdG6FNaX-22" value="" style="edgeStyle=none;rounded=0;orthogonalLoop=1;jettySize=auto;html=1;" edge="1" parent="1" source="BcAI-pfgliB9wdG6FNaX-20" target="BcAI-pfgliB9wdG6FNaX-21">
          <mxGeometry relative="1" as="geometry" />
        </mxCell>
        <mxCell id="BcAI-pfgliB9wdG6FNaX-25" value="" style="edgeStyle=none;rounded=0;orthogonalLoop=1;jettySize=auto;html=1;" edge="1" parent="1" source="BcAI-pfgliB9wdG6FNaX-20" target="BcAI-pfgliB9wdG6FNaX-24">
          <mxGeometry relative="1" as="geometry" />
        </mxCell>
        <mxCell id="BcAI-pfgliB9wdG6FNaX-20" value="Khách hàng&lt;br&gt;" style="shape=umlActor;verticalLabelPosition=bottom;verticalAlign=top;html=1;outlineConnect=0;" vertex="1" parent="1">
          <mxGeometry x="50" y="350" width="30" height="60" as="geometry" />
        </mxCell>
        <mxCell id="BcAI-pfgliB9wdG6FNaX-21" value="Đặt Phòng" style="ellipse;whiteSpace=wrap;html=1;verticalAlign=middle;" vertex="1" parent="1">
          <mxGeometry x="240" y="300" width="120" height="60" as="geometry" />
        </mxCell>
        <mxCell id="BcAI-pfgliB9wdG6FNaX-24" value="Tra cứu thông tin &lt;br&gt;đặt phòng" style="ellipse;whiteSpace=wrap;html=1;verticalAlign=middle;" vertex="1" parent="1">
          <mxGeometry x="240" y="390" width="120" height="60" as="geometry" />
        </mxCell>
        <mxCell id="BcAI-pfgliB9wdG6FNaX-27" value="&amp;lt;&amp;lt;include&amp;gt;&amp;gt;" style="endArrow=open;endSize=12;dashed=1;html=1;rounded=0;" edge="1" parent="1" target="BcAI-pfgliB9wdG6FNaX-11">
          <mxGeometry width="160" relative="1" as="geometry">
            <mxPoint x="300" y="140" as="sourcePoint" />
            <mxPoint x="440" y="130" as="targetPoint" />
          </mxGeometry>
        </mxCell>
        <mxCell id="BcAI-pfgliB9wdG6FNaX-31" value="&amp;lt;&amp;lt;extend&amp;gt;&amp;gt;" style="edgeStyle=none;rounded=0;orthogonalLoop=1;jettySize=auto;html=1;dashed=1;startArrow=open;startFill=0;endArrow=none;endFill=0;startSize=12;" edge="1" parent="1" source="BcAI-pfgliB9wdG6FNaX-28" target="BcAI-pfgliB9wdG6FNaX-30">
          <mxGeometry relative="1" as="geometry" />
        </mxCell>
        <mxCell id="BcAI-pfgliB9wdG6FNaX-28" value="Quản lý phòng" style="ellipse;whiteSpace=wrap;html=1;" vertex="1" parent="1">
          <mxGeometry x="470" y="20" width="120" height="60" as="geometry" />
        </mxCell>
        <mxCell id="BcAI-pfgliB9wdG6FNaX-30" value="Thêm,sửa tình &lt;br&gt;trạng&amp;nbsp;phòng" style="ellipse;whiteSpace=wrap;html=1;" vertex="1" parent="1">
          <mxGeometry x="700" y="20" width="120" height="60" as="geometry" />
        </mxCell>
        <mxCell id="BcAI-pfgliB9wdG6FNaX-44" value="&amp;lt;&amp;lt;include&amp;gt;&amp;gt;" style="edgeStyle=none;rounded=0;orthogonalLoop=1;jettySize=auto;html=1;dashed=1;endArrow=open;endFill=0;startArrow=none;startFill=0;endSize=12;exitX=1;exitY=0.5;exitDx=0;exitDy=0;" edge="1" target="BcAI-pfgliB9wdG6FNaX-46" parent="1" source="BcAI-pfgliB9wdG6FNaX-9">
          <mxGeometry relative="1" as="geometry">
            <mxPoint x="340" y="120" as="sourcePoint" />
          </mxGeometry>
        </mxCell>
        <mxCell id="BcAI-pfgliB9wdG6FNaX-45" value="&amp;lt;&amp;lt;extend&amp;gt;&amp;gt;" style="edgeStyle=none;rounded=0;orthogonalLoop=1;jettySize=auto;html=1;dashed=1;startArrow=open;startFill=0;endArrow=none;endFill=0;startSize=12;" edge="1" source="BcAI-pfgliB9wdG6FNaX-46" target="BcAI-pfgliB9wdG6FNaX-47" parent="1">
          <mxGeometry relative="1" as="geometry" />
        </mxCell>
        <mxCell id="BcAI-pfgliB9wdG6FNaX-46" value="Quản lý đặt phòng" style="ellipse;whiteSpace=wrap;html=1;" vertex="1" parent="1">
          <mxGeometry x="470" y="90" width="120" height="60" as="geometry" />
        </mxCell>
        <mxCell id="BcAI-pfgliB9wdG6FNaX-47" value="Thêm, tìm kiếm, sửa&lt;br&gt;tình trạng đặt phòng" style="ellipse;whiteSpace=wrap;html=1;" vertex="1" parent="1">
          <mxGeometry x="700" y="90" width="120" height="60" as="geometry" />
        </mxCell>
        <mxCell id="BcAI-pfgliB9wdG6FNaX-48" value="&amp;lt;&amp;lt;include&amp;gt;&amp;gt;" style="edgeStyle=none;rounded=0;orthogonalLoop=1;jettySize=auto;html=1;dashed=1;endArrow=open;endFill=0;startArrow=none;startFill=0;endSize=12;exitX=1;exitY=1;exitDx=0;exitDy=0;" edge="1" target="BcAI-pfgliB9wdG6FNaX-50" parent="1" source="BcAI-pfgliB9wdG6FNaX-9">
          <mxGeometry relative="1" as="geometry">
            <mxPoint x="340" y="200" as="sourcePoint" />
          </mxGeometry>
        </mxCell>
        <mxCell id="BcAI-pfgliB9wdG6FNaX-49" value="&amp;lt;&amp;lt;extend&amp;gt;&amp;gt;" style="edgeStyle=none;rounded=0;orthogonalLoop=1;jettySize=auto;html=1;dashed=1;startArrow=open;startFill=0;endArrow=none;endFill=0;startSize=12;" edge="1" source="BcAI-pfgliB9wdG6FNaX-50" target="BcAI-pfgliB9wdG6FNaX-51" parent="1">
          <mxGeometry relative="1" as="geometry" />
        </mxCell>
        <mxCell id="BcAI-pfgliB9wdG6FNaX-50" value="Quản lý đặt phòng trước" style="ellipse;whiteSpace=wrap;html=1;" vertex="1" parent="1">
          <mxGeometry x="470" y="170" width="120" height="60" as="geometry" />
        </mxCell>
        <mxCell id="BcAI-pfgliB9wdG6FNaX-51" value="Thêm,tìm kiếm,&lt;br&gt;sửa tình trạng đặt phòng trước" style="ellipse;whiteSpace=wrap;html=1;" vertex="1" parent="1">
          <mxGeometry x="700" y="170" width="120" height="60" as="geometry" />
        </mxCell>
        <mxCell id="BcAI-pfgliB9wdG6FNaX-52" value="&amp;lt;&amp;lt;include&amp;gt;&amp;gt;" style="edgeStyle=none;rounded=0;orthogonalLoop=1;jettySize=auto;html=1;dashed=1;endArrow=open;endFill=0;startArrow=none;startFill=0;endSize=12;exitX=1;exitY=1;exitDx=0;exitDy=0;" edge="1" target="BcAI-pfgliB9wdG6FNaX-54" parent="1" source="BcAI-pfgliB9wdG6FNaX-9">
          <mxGeometry relative="1" as="geometry">
            <mxPoint x="340" y="280" as="sourcePoint" />
          </mxGeometry>
        </mxCell>
        <mxCell id="BcAI-pfgliB9wdG6FNaX-53" value="&amp;lt;&amp;lt;extend&amp;gt;&amp;gt;" style="edgeStyle=none;rounded=0;orthogonalLoop=1;jettySize=auto;html=1;dashed=1;startArrow=open;startFill=0;endArrow=none;endFill=0;startSize=12;" edge="1" source="BcAI-pfgliB9wdG6FNaX-54" target="BcAI-pfgliB9wdG6FNaX-55" parent="1">
          <mxGeometry relative="1" as="geometry" />
        </mxCell>
        <mxCell id="BcAI-pfgliB9wdG6FNaX-54" value="Quản lý tài khoản" style="ellipse;whiteSpace=wrap;html=1;" vertex="1" parent="1">
          <mxGeometry x="470" y="250" width="120" height="60" as="geometry" />
        </mxCell>
        <mxCell id="BcAI-pfgliB9wdG6FNaX-55" value="Đổi mật khẩu" style="ellipse;whiteSpace=wrap;html=1;" vertex="1" parent="1">
          <mxGeometry x="700" y="250" width="120" height="60" as="geometry" />
        </mxCell>
        <mxCell id="BcAI-pfgliB9wdG6FNaX-58" value="&amp;lt;&amp;lt;extend&amp;gt;&amp;gt;" style="edgeStyle=none;rounded=0;orthogonalLoop=1;jettySize=auto;html=1;dashed=1;startArrow=open;startFill=0;endArrow=none;endFill=0;startSize=12;exitX=1;exitY=1;exitDx=0;exitDy=0;" edge="1" target="BcAI-pfgliB9wdG6FNaX-59" parent="1" source="BcAI-pfgliB9wdG6FNaX-54">
          <mxGeometry relative="1" as="geometry">
            <mxPoint x="590" y="350" as="sourcePoint" />
          </mxGeometry>
        </mxCell>
        <mxCell id="BcAI-pfgliB9wdG6FNaX-59" value="Đổi thông tin" style="ellipse;whiteSpace=wrap;html=1;" vertex="1" parent="1">
          <mxGeometry x="700" y="320" width="120" height="60" as="geometry" />
        </mxCell>
        <mxCell id="BcAI-pfgliB9wdG6FNaX-60" value="&amp;lt;&amp;lt;include&amp;gt;&amp;gt;" style="edgeStyle=none;rounded=0;orthogonalLoop=1;jettySize=auto;html=1;dashed=1;endArrow=open;endFill=0;startArrow=none;startFill=0;endSize=12;exitX=0.5;exitY=1;exitDx=0;exitDy=0;" edge="1" target="BcAI-pfgliB9wdG6FNaX-62" parent="1" source="BcAI-pfgliB9wdG6FNaX-9">
          <mxGeometry relative="1" as="geometry">
            <mxPoint x="340" y="370" as="sourcePoint" />
          </mxGeometry>
        </mxCell>
        <mxCell id="BcAI-pfgliB9wdG6FNaX-61" value="&amp;lt;&amp;lt;extend&amp;gt;&amp;gt;" style="edgeStyle=none;rounded=0;orthogonalLoop=1;jettySize=auto;html=1;dashed=1;startArrow=open;startFill=0;endArrow=none;endFill=0;startSize=12;" edge="1" source="BcAI-pfgliB9wdG6FNaX-62" target="BcAI-pfgliB9wdG6FNaX-63" parent="1">
          <mxGeometry relative="1" as="geometry" />
        </mxCell>
        <mxCell id="BcAI-pfgliB9wdG6FNaX-64" value="&amp;lt;&amp;lt;request&amp;gt;&amp;gt;" style="edgeStyle=none;rounded=0;orthogonalLoop=1;jettySize=auto;html=1;entryX=1;entryY=1;entryDx=0;entryDy=0;entryPerimeter=0;dashed=1;startArrow=none;startFill=0;endArrow=open;endFill=0;startSize=12;endSize=12;" edge="1" parent="1" source="BcAI-pfgliB9wdG6FNaX-62" target="BcAI-pfgliB9wdG6FNaX-1">
          <mxGeometry relative="1" as="geometry" />
        </mxCell>
        <mxCell id="BcAI-pfgliB9wdG6FNaX-62" value="Quản lý Tài khoản" style="ellipse;whiteSpace=wrap;html=1;" vertex="1" parent="1">
          <mxGeometry x="470" y="340" width="120" height="60" as="geometry" />
        </mxCell>
        <mxCell id="BcAI-pfgliB9wdG6FNaX-63" value="Thêm tài khoản" style="ellipse;whiteSpace=wrap;html=1;" vertex="1" parent="1">
          <mxGeometry x="700" y="400" width="120" height="60" as="geometry" />
        </mxCell>
      </root>
    </mxGraphModel>
  </diagram>
</mxfile>
